/* XPM */
static char *a84ffaabd9794666c28c24dd6390823cACZhKJeyIiYH3nGc[] = {
/* columns rows colors chars-per-pixel */
"64 64 44 1 ",
"  c #080607",
". c #070506",
"X c #060405",
"o c #090708",
"O c #050405",
"+ c gray2",
"@ c #070707",
"# c #060606",
"$ c #0A0809",
"% c #050404",
"& c #050605",
"* c #060505",
"= c #070606",
"- c #060506",
"; c #080707",
": c #070405",
"> c gray3",
", c #070607",
"< c #090608",
"1 c #060707",
"2 c #040505",
"3 c #040404",
"4 c #080507",
"5 c #080708",
"6 c #090607",
"7 c #050304",
"8 c #080506",
"9 c #060706",
"0 c #070406",
"q c #090606",
"w c #0A0605",
"e c #050507",
"r c #060507",
"t c #040504",
"y c #060304",
"u c #070807",
"i c #050606",
"p c #060305",
"a c #040304",
"s c #0A0608",
"d c #0B090A",
"f c #090808",
"g c #070708",
"h c white",
/* pixels */
" ..    .     . .  . X. . ..    .X.ooooo.X. .XXXO+@@  X.+#++#@#++",
" ..   $      . .  .    . ..       o . .XX.   .X%&@@  . *+++#@#+@",
"o .   $   .  . .  . oo ...        o X..XX.  o.XO+#@   o=###@@++@",
"$o.    .  X.o        o  X.oo   XX.o..   .X.  XX-++@;   @@@@@@+##",
"o..    .   oo $o   .X    ooo   XXX.X.   o..  X:-++@;   @@@@@@@>>",
" o   .     o .oo .o ==*= ; =@;,*##O-@,=;<.X=>=O#@#+,@@,@@#@@#@@#",
" o   .       .   .  @12*   .@@@+@@+#@##; .X*@#+#@#+#@#+#@#@>##@#",
" o   .       .   .X-@@+#   .@@@+##+#@##; .XO&#+++++#@+3#@#@@##@#",
" oo X.         .  X*@@@>:.4,#@#++++#@@+* .X-+#@+3++#+#@##@#+++++",
"X  X           .  X*@@@@oX.,#@+3+++#@@+*<.X-+#@##++#+#@#+@#+++++",
"...X oo   .... .  X=5;#-o. =-;,-#-O-;,-*=-O####-=*O#+#@+3#@++3++",
"   .      ....    .6  ...  .X o  .X.   *+++#@++XXXX-+#@+##@#+3++",
"   .  X.  ooo     . X.o .  .X o  .X.   *+++#@++XXXX-+#@++#@#++@#",
". .           X7X.   o    o XX..X. .X.X-@#+##++O.  #3+##+++@@#@+",
". .       X.  .7XX  oo     .XX. X. .XXX-@@1#+++O   ,+++#+3+#@#@#",
".        .7.   .X*   o   ,*XX.o X. .XX.=@;>@++#*  4@#++#+++++#@#",
"ooo X..  .   .X.++@#X. =#>@#   XXXX77.o   8-++9=..X,##++++##+##+",
"...X  XX .   .X.++@#X. ,#>@#   XXXXX...   8-+3+OXXX,1#+++3+#+##@",
"XX .o X. .  ....++@#X. .@@@=.. . ...  XX.= -+++OXX.##++##++-+###",
" .   .     .X...++##.. .@@@=X.        X7XX.*+#+*:X.*+++#@##++++#",
"o .X.X     .X.7O++3+oo .@@@=X. .X.    X7XX7O+#+*X77O+++#@+3+++++",
"     ..   o XX   .XX  XXX..X   ..     XXXX7.o.X. .XOXO7++++-X. =",
"  .   .   ooXX     .. XXXX.X   ..     XX .-. .X.  XXXX0++++.X.  ",
"  XX  .   o X.        X...XX   ..     ..o ..XXX. .XXX. -+++.0.  ",
"  .X.   XX. .   o X oo  o X. .X.  o .oo  XX. .X. .XX   -++@; .Xo",
"    .   XX. .   oo ooo  XXX. .7.  oo.oo  XX. .X. .XX   -++@; 0X.",
"        XX   o..o  o  . o.X.       .X    ..  ,X.;==--=@#+#>###Oq",
"        ..    ..o..  ..oo X.   ..o X.         .=@@@1###++#@##@+w",
"        o   X.o o .   .  .X  .XX.o .oo       o6,@@@@>#3++++#>@+q",
"  XX.  .X.   .    ooo X.   o   .X. .    o . o  =+#@#+++#@#+++@#-",
"  XXXX .XX   .    ....X: o X   .7. XX.  ..X..-4=+++++++#>#+++#+e",
"  X7X...X*== ......-X*-. .7 ....X..XX. .XX7X.. =+++++++-#+++++3r",
"  X7 oX.++#+  XXXX ,+#@@  .XXXX. XX.   .XXXX oo.X.6.XXXOt++3#++=",
"   XX.X.+#>@  XXXX ,+#@@  o XXXXX7X.   .XXXX  .XX. .XXX-#++3#++*",
"o XX..0X++++  XX....++##    ..XXXX .X. .X...XX7XXX.XXXX*##++@#+X",
"o.X. ..O++++  XX  .,+++*     .X..   .  .X. .XXX.X7X. XX++#++@#+o",
".X.. ..O++@,  X.   ;+++-     .X.o   o  .X. .X...XXX o.X++#++@#+=",
"777X@##OXXoo  oo   ..  .XXX.o . .  .X. .X.o X..XX. .XXXXX.4*+++3",
"....@##OXX..  ..  X7.  .XXXX... .  .7. .XX..X.X7X. .XXXXXXX++++#",
"    #+&+XX.. .X....X o  X..XX. .    .. .XX..XX.XX. .X..XXXX+++++",
"    ++++XX   X. ..    XX.o X.o .        X. ... .X.. .. .X.6-+3#+",
"    ++++XX   .. o  .X o .o X.o .        X0  o. .XX7... .X. -+%#+",
"+++O7X%O  .XXXX. . .XXXXXX.XX    .XXXX0*+++*.Xy-###.XXX77X.*+33O",
"++++X.X.  .7XXX. .  ..XXXX..X.   XXXXXXO+++-4.X*&@u,4.XXX7.*+++X",
"##@#....  .XXXX. .  o XX .  X.  .XXX..X*+*#,< .*3#@      X0*+##-",
"+#@#77X.  .   .X  X.o .X .X. .XX7XXX.XX*3+i*XXX++++O7.   .XO+++ ",
"@@@#..X.  .   .X  XX..XX .X. .XX..   .X=#@@; .X++++*.    .X%+++-",
"55;,. .   . o ..  .... .. ..  ...o$oo .=-,5;o .*+#@, ..  . .#*-*",
"   o.         ..       .X  .   .. 7.   .p.   ..-+#u  .X ..oo . .",
"   o.       XX7X      XXX  .   .. ..X. .X.   .7O+++= .X .X.  . .",
"X.o.  XXX.  XXXX     .XX .X.  o.7X.. . .X. .X.X3i++*XXXXXXX o.X.",
"7.oX  XXXX  XX.X      X. .X.   XXXX.o...7. .X.0a##+XXXXXXXX. XX.",
"X. X  XXX.  X..X     .X.  X.  .. .X...  .. .X.X%&+2*-XXXXXXXX.X ",
"XX7X  X.      XXXX    X.   .     XXX7.  o.X..XX+++3#@#+#+3#-    ",
"XX..   o      XXXX         .     XXX.. ..XXX77XO+##@@#+#+3#-   .",
"  ..  ... o ....    ....  ..     ...   ...X....*+#@#####+++,o   ",
"  XX  X7X.  XX      XX..  X     ..    .. .X.o,.*++#++##++++=    ",
"XXXX  XXX.XXXX  X.  X.o X.X.   .7X..  .. .X. .7O++33#+3++++*X= .",
"o XX.XXX  .     XXX.   X777X .X.X.o XXXX7. .X. X77X. .. .X .X. >",
"..XX .XX  .     XXXX   ..... .X.X. .XXXXX. .X. ..XX  . o.X     =",
".... .XX  .   ..XXX.   .  .  ...X. .XX..   .X.o .X.     .. o  .+",
"    .XXX      XX.X.    .oo.o . .X. XX.     .. o.XX   o . o  ..X-",
"    o XX  oo  XXo .    .oo.o . .X. XX.        0XXX ..  . .X .  #",
"...$ X7Xs65;.   ,##; .d. o .@O--  .X*O,54...f,%.. ..X o .XX,,5>g"
};
