/* XPM */
static char *_92d85646f3d478cea3a4f20a2d231af3UJ5CTrpczQEQyeo[] = {
/* columns rows colors chars-per-pixel */
"64 64 159 2 ",
"   c #060505",
".  c #080606",
"X  c #040A02",
"o  c #0A0903",
"O  c #05050A",
"+  c #090609",
"@  c #03090B",
"#  c #0A0809",
"$  c #130101",
"%  c #1B0000",
"&  c #100901",
"*  c #12020C",
"=  c #100C09",
"-  c #1E0E0E",
";  c #0E1003",
":  c #111000",
">  c #12110F",
",  c #060512",
"<  c #0B0313",
"1  c #040912",
"2  c #0C0D12",
"3  c #090118",
"4  c #110710",
"5  c #170C1A",
"6  c #0C1212",
"7  c #191013",
"8  c #240000",
"9  c #2C0000",
"0  c #330000",
"q  c #3C0000",
"w  c #440000",
"e  c #4C0000",
"r  c #4C0B00",
"t  c #590000",
"y  c #510009",
"u  c #5C0509",
"i  c #5B100D",
"p  c #5C0D11",
"a  c #491114",
"s  c #600703",
"d  c #7D0207",
"f  c #7F0708",
"g  c #740B0C",
"h  c #7C0A0E",
"j  c #6C120A",
"k  c #6F0B11",
"l  c #6E0E19",
"z  c #740612",
"x  c #7A0613",
"c  c #68101C",
"v  c #7D1313",
"b  c #870203",
"n  c #8C0305",
"m  c #8B030C",
"M  c #950101",
"N  c #9E0002",
"B  c #94030A",
"V  c #9A060A",
"C  c #94090C",
"Z  c #9B0B0C",
"A  c #820410",
"S  c #860A15",
"D  c #910E16",
"F  c #841317",
"G  c #8D1014",
"H  c #A30100",
"J  c #AC0001",
"K  c #AF0B0A",
"L  c #B30101",
"P  c #BB0000",
"I  c #B60C00",
"U  c #BA0804",
"Y  c #B0000A",
"T  c #AF1B00",
"R  c #AB100E",
"E  c #AB1214",
"W  c #A51218",
"Q  c #AD131B",
"!  c #BA1615",
"~  c #BD171B",
"^  c #B11A1F",
"/  c #BD1D1F",
"(  c #91381A",
")  c #BB1924",
"_  c #982827",
"`  c #B2272C",
"'  c #B12D2B",
"]  c #C30201",
"[  c #CC0101",
"{  c #C20B02",
"}  c #CA0A09",
"|  c #D30001",
" . c #DA0000",
".. c #D50805",
"X. c #DC0D00",
"o. c #D5060A",
"O. c #D20D0B",
"+. c #DE0C0F",
"@. c #DC1A00",
"#. c #D61B0C",
"$. c #C10911",
"%. c #C90B13",
"&. c #DA0B10",
"*. c #DA0C18",
"=. c #CE1415",
"-. c #CA171A",
";. c #C41C1A",
":. c #D41613",
">. c #D5161B",
",. c #D7181F",
"<. c #DC181C",
"1. c #E30202",
"2. c #EC0302",
"3. c #E20C02",
"4. c #ED0D03",
"5. c #E6070A",
"6. c #ED030E",
"7. c #E30908",
"8. c #EB0B0B",
"9. c #F30402",
"0. c #F60A00",
"q. c #FC0907",
"w. c #F50108",
"e. c #FE030C",
"r. c #F30B0D",
"t. c #FD0E0B",
"y. c #E31900",
"u. c #F81505",
"i. c #FA1907",
"p. c #FF170A",
"a. c #F40411",
"s. c #E31217",
"d. c #EA141E",
"f. c #CA2512",
"g. c #E22B00",
"h. c #FF3B11",
"j. c #C01C23",
"k. c #F81D21",
"l. c #C6272C",
"z. c #D22624",
"x. c #FF6E2C",
"c. c #FF7E31",
"v. c #FF6E40",
"b. c #FF6D4C",
"n. c #E47C49",
"m. c #FF7446",
"M. c #FF7F46",
"N. c #FF822C",
"B. c #FF8231",
"V. c #FF8E33",
"C. c #F28039",
"Z. c #FF8039",
"A. c #D28C4E",
"S. c #E38B4C",
"D. c #FF8941",
"F. c #F4874F",
"G. c #EE9342",
"H. c #FF885F",
"J. c #EA9765",
/* pixels */
". . . . .   +   #   .   # +   +         #   . X . . . .   +         + +   +           . +                   @                   ",
". . + + . #   +   # . # . . +   +   +     # #     . . . +   #         . +   @ +       + +                 o o         .         ",
"  +   + .   . # # #       #   + #       #   #   O . . . O   .     . . . #   #     .   +               @   @   # X .   . @     X ",
"+   +   . #         # . #   +   #   # + # # #   . . . . . . . .   # . . X #   #       .               . @ # #     @ @ X X . @   ",
"  + #   #     # #     .   #       +       + . . . .   + @ # . .         . . . .     +           X     @       + # @ +   .     + ",
"#     #   #   . . #   . #     # + .   + # + . .   . +   X # . .           . . . .                     o @   . X o   @   . . #   ",
"  #     # . . .   #   #   . #   .   . .   # . . O     + . . . .             . . +                 @     # . @           o @ @   ",
"#   #     #   # . . . . # #   # . .   . #   . X . . +   . . . .             . .     .                 @ o           o @         ",
". . .     #   #   +   . . + @ . . O     . + # @ +   + . +               . . .             .                       @             ",
"  . . . #   +   #   .   . + . . . .       + + #             +   .       . O .             +   .           @           o @ o     ",
".   # . .     #     . .   + .   . . .   +   + +     .     .   +         +                               @ #   @ @     @       X ",
".       #   #   # . . . +   .   . .   .   +       .   .                                             X     o   X o               ",
"    . . . .   + #   . #   +     . . . O + . . . . . .       . .                                           @             @   X   ",
".     + #   +       .   + # #   .   . . + + . . . .         . .     +     .                       X X           X           @   ",
".     + . . #   # .       #     .       + + . . . O       . + +                   . O           @       X                   X . ",
"  . . @ #   . #     #     # #   . . X # o @ . < # O       + + +     +         O . . O   . O   O X   @                   @     . ",
". . +   +   +   . . .   .     . , O   o X o   , < < +     . O O + . O   O O 1 @ @ , O O @ O O O     . .   .                 +   ",
". . . .   +   + . @ .     . . O , O X   o   + O < O . o o .     + .     O O @ . O O O   O O   O     . .                       + ",
". . . .   + #   . . .     O . . O O   X o o o     X X X X X X     . o X X   o   . . $ + . .           .                         ",
". @ . . #   #   . .   . .   .   O O   X o X o o o     X o X       o X o o X   $ . $ $ $ .   X                                 + ",
". # #       #   . . .   . . . O , O   .   o   + O +   + + < < < O , , 1 O O O + . . $ . X X   X                                 ",
".   . # #     # . @ .     O . . , < O + . . + + .     + + + 3 , , , 1 1 , , O + $ . $ .     X X                                 ",
"  #     #   #   . +   . .   . O , < , , O O O         X o o o   @ @ O @ . .     . $ $ .   .                   .           +   + ",
". . . #   #   # . .     .       O , O , , , , O X       X o o   X o   @ X X o o $ + $ + .     O     .       . .               + ",
"  # . .   #   .       . . . .   o       O O O , 1               . $     o               O O O ,         .           . . .       ",
"#   . .   # # # .       . . . o o o ;   O 5 O O         +   . . .                       O O O   O       .           . . .   .   ",
"+ + +   #   + #     . . . .     o :     +                   .   .                           O O O     . . .       . . +   .   . ",
"@ +   +     +   .   . . . X     X o #   * . . $ $ % 9 8 9 q q 0 0 0 9 8 % % % $ 8 $   .     O 1 O . .   . .             .   .   ",
"# # . . .   O +   . . . . O     6   , 5 $ % 9 r J.n.H.T f.U :.:.=.-.-.! K V n f g u q 8 $ $     . . .                     .   . ",
". o .   .   . .       . . . . @ @ O O . % 9 0 S.C.Z.D.h.4.p.9.q.9.r.8.7...] J H M G k q 8 .           .         .       . . .   ",
". .           .         . + @ +   2     % 8 A.G.V.N.x.y.i.2.e.w. .| | | [ ] P L M C F u 9 $   X             O . . .     . . O . ",
".           .       .   . . . . 1     % 9 ( F.Z.B.B.g.y.1.r.a.6.| | [ [ | o.[ { J M b v i 9                   . . .     O . . . ",
"O         .       X + + + . . @ O     $ _ f.#.b.m.v.@.X.X.| [ o.| [ [ [ [ [ [ ] I N H M g p % .         .                       ",
".       .         @     . . .     @   $ w / ..4.X.X.X.3.[ | O.] | [ ] [ o.[ [ ] L N H M D l 8                                   ",
"# O       .           + .         @     $ q z.3.u.1. . . .1.[ [ [ [ [ [ | [ [ ] J H M C A c $                       . .   .     ",
"+ + .   .               +   . . o   6 O   % t :.1.t.r.1.1.1.[ [ ] [ [ [ [ [ [ { J M Z d k 0   X                             .   ",
"+ .   . . . .         . + . . . @ X       - 0 ' +.w.9.t.9. .| | [ ] [ [ [ | ] P N V m z 9     X                       . . .   . ",
". .   . . . . .     . . + O . .   X @   O   $ q ) d.9.9.t.1.| | [ [ [ ..[ [ ] J M m x 0 %   X                 . . +             ",
". .     .             . . .     1   # o   .   % q Q k.2.9.0. .[ [ | [ ] [ ] P H B x q $   o X X                                 ",
". . . .               . . O     O .   $ $     O 8 w %.t.0.1.| | | | [ [ ] ] L M S y $         o     X                           ",
". .               . . +   + + + 4 4 $ o $ o @ @ O 8 B &.2.9.3.[ o.[ [ ] ] U J m i 8     . .   o     .   . . . .     +         . ",
". .             . .   . +     + < 4 $ o o X @ @   $ w l.&.4.3.[ | | | [ L K n k 9       O O $ *       . . . . . .         +     ",
"                # .   . @       +   . X X X X X   $ 9 w j.s.2.1.o.[ o.P $.V s 0 .     O @ . $ $       O O   .         . +   +   ",
"                  #     X     . .     . X X X   $     8 e ;.7.9.| [ ] %.N h 9       O   O O + % + . . . . . # . +   .     .     ",
"                #           X X X X + +   @ o X .       % t >.5.[ P *.Y g 9 $   . $ .   @ @ * * .     . . . . O       .     .   ",
"  .   .           +         . @ X . O * # # .   X   +     0 W ,.O.} L C q $   o . $ X X X @ + + .         . . . .   +     . +   ",
". . . .                 . .     X X + * 4 + + . . @     $ 8 q ` <.] M e 8       $ $ . @ X X @ . .       .     .         .       ",
". . .               + +   . +   X X + + 4 * + +     X X   . 8 q ) E j 9 .     . * $ X   @ X @ # . +   . . .       + +       +   ",
". . . . . . O . . + + + + . .   X . . . . # . . O . + @       $ 9 a % . $   o . . X             . .   . .       . . . . . . .   ",
". O   . . . . .     . . @ . .   . # . . + + . .     . .           -     +   + . . .   . .           . .     .         .   .   . ",
"    .   .     .       .           #   # + . .       .   .               +   o .   . . .               .               .     .   ",
"      .   .         .               #   . . . . .       .             . $   *     .   .                                 . .   . ",
"            . O .     .           #   #   . .   .       . +   .       . +   * . . .   .                               .   . . . ",
"    .     . . . . . . .     .       #     . . . .     O #       .       . + o . . .                   .               O . . . . ",
"      . . . O . . O . O . .   .   # #   +   . .   .   . . +   + . .       .     .   +                               . . . . O . ",
"        . . . .   . . . .         +   +   + . @   . . .   . +   * .     o *                           . . . .       . . # # . # ",
"  .                   .   . @ .     . . O .   +         + # # +   o . . . .     . . . . . . . .               .             + . ",
"      .               . . . . .     . .   . +     .                 . . .       .   . .   . . .       .   . . .             . . ",
".       .       . .     . @ . .       . . .   . # .       #           .     .                           . . . .         . . . . ",
". . .   . .         . . . + + .         .         .             X .   . @   . O   .   .   . . .     . . . . . .         O   . . ",
".   .   #     .       + . . . .       .   .   . . +     +   + +     @   . @ X . . +   . . . . .         + + @ X . . .   . .     ",
"  . O .     # . # # #   . . @ . .           . .                 @ X   X .     . . + . . . + + .           + # # . . . .         ",
"+ . . .   #     #   + + . . . .       + . . # . #   +   .       . @ @     .   .       . + . . .       .   + . . O   .   . .   . ",
"+ .   . # #     + #   + . . . .     +   +     #     .           o         . X @ .   . . . . .       . . O . .       O . . . . . "
};
