/* XPM */
static char *_375216eb8c04822ea0735167c0232afO7UYyVedd0J9Jfxq[] = {
/* columns rows colors chars-per-pixel */
"64 64 256 2 ",
"   c #020202",
".  c #0A0102",
"X  c #010902",
"o  c #01020B",
"O  c #0B010A",
"+  c #000A0C",
"@  c #0B0B07",
"#  c #120100",
"$  c #120708",
"%  c #010313",
"&  c #010B13",
"*  c #00041B",
"=  c #000B1C",
"-  c #0A0714",
";  c #00111C",
":  c #001616",
">  c #150B15",
",  c #000622",
"<  c #000C23",
"1  c #000C2B",
"2  c #00052C",
"3  c #001323",
"4  c #00142B",
"5  c #001C2C",
"6  c #001C24",
"7  c #000C33",
"8  c #000B38",
"9  c #001433",
"0  c #001C34",
"q  c #00143A",
"w  c #001A3A",
"e  c #002629",
"r  c #012334",
"t  c #00243B",
"y  c #002C3C",
"u  c #002D35",
"i  c #043839",
"p  c #001D44",
"a  c #001846",
"s  c #001E51",
"d  c #002443",
"f  c #002C44",
"g  c #002C4C",
"h  c #04254B",
"j  c #023749",
"k  c #002C53",
"l  c #00295A",
"z  c #013554",
"x  c #003D5C",
"c  c #023A58",
"v  c #14354C",
"b  c #003B64",
"n  c #033B68",
"m  c #003670",
"M  c #014659",
"N  c #0B4D56",
"B  c #254F4F",
"V  c #004D63",
"C  c #044869",
"Z  c #08546B",
"A  c #014B76",
"S  c #005372",
"D  c #055778",
"F  c #155370",
"G  c #2B5A70",
"H  c #00657B",
"J  c #186777",
"K  c #077271",
"L  c #306A78",
"P  c #49757C",
"I  c #27877B",
"U  c #044F84",
"Y  c #025987",
"T  c #005D96",
"R  c #165B86",
"E  c #235B8E",
"W  c #02648C",
"Q  c #016C8C",
"!  c #066486",
"~  c #006495",
"^  c #016995",
"/  c #066A9B",
"(  c #176B95",
")  c #077697",
"_  c #18779C",
"`  c #157189",
"'  c #246B96",
"]  c #29728E",
"[  c #0B79A6",
"{  c #147AA8",
"}  c #0A79B5",
"|  c #157BB7",
" . c #0A6AAD",
".. c #277AAE",
"X. c #005AA0",
"o. c #567D89",
"O. c #4573A4",
"+. c #007DC7",
"@. c #067CCD",
"#. c #13849B",
"$. c #298A99",
"%. c #349091",
"&. c #1985A7",
"*. c #0987B9",
"=. c #1987BA",
"-. c #0694BC",
";. c #1995BC",
":. c #0C87AC",
">. c #2585A7",
",. c #3589A8",
"<. c #2888B7",
"1. c #2994B9",
"2. c #3998BA",
"3. c #2E90AE",
"4. c #35A4B3",
"5. c #4D8B9A",
"6. c #4C93B0",
"7. c #6F9EB2",
"8. c #51A7B5",
"9. c #6FAFB7",
"0. c #45C1B9",
"q. c #078ACB",
"w. c #188BC5",
"e. c #0A96C8",
"r. c #1994C9",
"t. c #058ED5",
"y. c #0094DC",
"u. c #019BDC",
"i. c #0996D7",
"p. c #169AD7",
"a. c #278CC8",
"s. c #2697C7",
"d. c #359BC9",
"f. c #279BD7",
"g. c #359DD6",
"h. c #17A5C8",
"j. c #02ADDC",
"k. c #07A4DA",
"l. c #17A7D9",
"z. c #04B4DD",
"x. c #19B4DB",
"c. c #08ADC9",
"v. c #35A6CA",
"b. c #27A7D7",
"n. c #38A7D8",
"m. c #26B4DB",
"M. c #33AFD0",
"N. c #0195E2",
"B. c #029BE3",
"V. c #0195EA",
"C. c #069BE9",
"Z. c #1694E0",
"A. c #02A5E4",
"S. c #02ACE4",
"D. c #0CADE5",
"F. c #01A4EC",
"G. c #02ACEC",
"H. c #0CABEC",
"J. c #0CA5E8",
"K. c #1CADEC",
"L. c #16A9E6",
"P. c #01B3ED",
"I. c #06B5E8",
"U. c #1CB4EB",
"Y. c #17B5E8",
"T. c #04A6F2",
"R. c #01ADF3",
"E. c #0BACF3",
"W. c #01A5FC",
"Q. c #02ADFC",
"!. c #0AACFC",
"~. c #0AA5F8",
"^. c #15AAF4",
"/. c #01B3F3",
"(. c #0CB3F4",
"). c #01BAF4",
"_. c #02B4FD",
"`. c #0BB4FE",
"'. c #02BBFC",
"]. c #0BBBFE",
"[. c #0FB9F6",
"{. c #12B4F2",
"}. c #13B4FD",
"|. c #18B8F7",
" X c #27ABE7",
".X c #32A8E4",
"XX c #23B3EC",
"oX c #2BB3EA",
"OX c #27B6E7",
"+X c #35B7EA",
"@X c #25ACF7",
"#X c #26B7F7",
"$X c #37B9F9",
"%X c #35AAF7",
"&X c #5A98CA",
"*X c #44A2C9",
"=X c #55B6CA",
"-X c #53A8D9",
";X c #54B0D1",
":X c #6DB3CF",
">X c #46B9FD",
",X c #50BAEC",
"<X c #65BFE2",
"1X c #0FC4FA",
"2X c #38C5F8",
"3X c #30C3F4",
"4X c #5BC4D1",
"5X c #6DD7DA",
"6X c #6ECAD5",
"7X c #4BC7FB",
"8X c #57CAF8",
"9X c #4BD4FC",
"0X c #5BD8FE",
"qX c #51C1E9",
"wX c #68CAEB",
"eX c #7AC8EB",
"rX c #7BD4EA",
"tX c #65CDFA",
"yX c #77CCF8",
"uX c #6CD4FC",
"iX c #67D8FC",
"pX c #7CDDFE",
"aX c #78D6F9",
"sX c #6DD1EB",
"dX c #78EAEA",
"fX c #69E5FD",
"gX c #7BE3FF",
"hX c #77E7F9",
"jX c #79FAF8",
"kX c #6CF4EE",
"lX c #77F9DF",
"zX c #84ABC4",
"xX c #8BCCCE",
"cX c #89D7ED",
"vX c #95D7EE",
"bX c #84D5FD",
"nX c #8CD4FE",
"mX c #85DCFC",
"MX c #8BDBFE",
"NX c #87D6F4",
"BX c #93DCFD",
"VX c #95DAFA",
"CX c #87C7EB",
"ZX c #A7D7F6",
"AX c #89E7E9",
"SX c #84E3FE",
"DX c #8AE4FE",
"FX c #8BEAFE",
"GX c #87E8F4",
"HX c #95E5FE",
"JX c #99E7F9",
"KX c #87F9F8",
"LX c #8FEBE9",
"PX c #A6E6FF",
"IX c #ACEFFF",
"UX c #81F6DC",
/* pixels */
"          . O O   X   X X     $ O . o - % % : : 3 w k C x z 9 , %     X   X   . O - * % o                             . . .     ",
"          O O . .   X X   X > . $   = * 1 g V ` ` 1.r.b.+Xs.>.R k 5 & +     . . O o o o o                                       ",
".       o o o         X X   . O   & ; D s.oXL.XX#Xk.Y.D.T.~.^.#XXXb.Y d < o . .       X       .                                 ",
"                        @     & & j 3.m.k.H.^.~.A.1Xj.(.!.!.}.F.F.E.oXd.C * o       X X X     .                                 ",
"X X             @         + + & M M.l.U.b..X>X%X@Xk.l. Xp.l.l. X#XK.l.b.2.F * %                                                 ",
"+ X                 O o o + + M v.m.p.*.tXDXaXSXiX>Xv.g ! iXiXiX8XiX0X8XuX8.f & o                                               ",
"                  X     - o 6 9.SXwX&Xa cXcXMXMXMXnXy = <XFXpXgXSXaXDXDXrXJX7.% o   . . .                                       ",
"    . .             .   o = G IXNXBXZXp o.IXNXmXHX&X= P HXaXDXmXNXBXMXMXBXJX7.= o   . . .                                   . . ",
".   . > % % o       # . o * zXPXJXJXIXE < 7.aX8XiX! x ;Xn.8XuXsXeXeXwX;X;X6.f < % o     @   .   .       . .                 . . ",
"  . > O % - % &   + + + * d 6.6.,.,.1.( 1 4 2.h.v.V d ,.<.Y A A b b z x c c p p 4 = & + X X o - -   . .     X                 . ",
"X     @ .     + & = < f x A ^ ^ ^ Q H x 5 < H M.M.( < * w k Y W ) :.:.8XyXyXnXCXCX:X9.5.G r = * * * o   @ .         X X X       ",
"  X     @   : & r S &.n. XOXXXU.XXl.U.h.>.Z 5 #.>.D < v ] n.oX|.Y.OXb.0XpXMXVXBXHXDXDXpXsX*X( C q 1 * %     X       X X X X     ",
"@       X X B L 2.M.L.A.G.G.R.(.(.J.E.}.K.OXW t 4 5 Z -X%X@XV.!.C.^.U.+XhXSXcXvXvXMXuXn.l.k.K.oX<.A 9 < 3 +   X       X         ",
"    + X i xXvXHXaX7XXXJ.]._._._._.Q.W.Q.R.L.v.d = = D l.^.!.`.Q.!.E.D.e.0XaXcXvXVXbXqXp.H.'.'.G.XX.X<.z < ; +                   ",
"o % < y :XHXyXbXbXDXuX+XJ.A.'._.W.].].F.Y.b.' 7 F h A oX|.A.P./.Q.F.L.b.iXDXVXVXMXpX7XL.G./././.).i.3XM.V ; o -   . .           ",
"- % 9 >.n.8XFXbXnXnXaXgX7XL./._.'.T.J.oXs.S q n &XA a s.l.z.Y.U.2X2X9XiXpXMXBXMXMXgX9X{.(.R./.'.'.).j.h.aX7.% o o   . . .       ",
"X & W XXB.XXtXMXnXBXMXaXSX0Xk./.G.|.s.( 5 3 ,.aX,X<.7 n b.x.7XpXpXSXSXmXmXMXBXBXMXSX0XU.H.F.'._.`./.z.x.uXPXzX= % +   . . #     ",
"  y n.H.`.u.b.<XMXyXbXMXMXpX7XK. X*.C 4 j 9.mXtXfXqXF 7 S v.HXnXVXNXNXMXBXMXNXrXpXiX3Xk.|.`.R.R.!.A.j.9XgXVXvXzX< %   @ .       ",
"o h d.K.{.U.b.n.,XuXFXmXVXPX<X( m a j %.mXDXwXpXwXpX*Xb 4 M 5.ZXvXAXcXcXMXHXFXgX0X3XY.A./._.`.!.F.#X7XpXbXrXHXJX:X4 &     .   X ",
"o * C / ^ ) ^ Y ~ [ d.<X8.` c b ' :XLXAXsXuXuXsXpXwX7Xn.x 3 < N 9.xXJXGXaXpX0X2Xl.k.(.]./.R.^.J.L.8XyXnXNXMXNXrXFX] < < o       ",
". X & & = ; 5 r r d c Z J $.;XeXnXNXrXrXbXyXuXhXaXuX$Xl. X~ p < + B 6.<X,X$XU.J.!.]._.Q.Q.E.l.qXgXHXVXPXVXHXBXDXiXqXD < , O O   ",
"      X o B $.3.1.s.*XyXFXmXNXNXVX6X4X;X;XeXsXgXaXuXOXA.}.@Xs.( y 3 9 l T w.L.XX X X^.^. Xb.&.3.2.6.5.6.8.:X:XnX;X4.=Xj * O   + ",
"O     = 9 3.m.z.D.{.C.@X0XuXCXCXJ M V K ` ` Z V 8.qXl.G.W.}.J.L.b.*.~ m s 8 q p d q t f t 0 3 t 9 9 9 4 3 ; < 4 u N G o.& O   X ",
"    > * Y oXG.)./._.Q.E.XXtX8.< J 6XKXjXdXKXAX] 3 S l.(.Q.Q.'.P./.}.@Xf.1.] G v & e e u i u : J 6.3.1.&._ ` Z j ; + + + -   o + ",
"      < g.^.T._.R.R.Q.E.oX[ 5 %.KXkXlXKXdXjXjXKX%.0 -.Y.G./.P.)._.Q.W.^.S.m.,.i %.UXdXGXKXKX%.e _ n.p. X#XL.U.n.d * * o X     + ",
"    + g .X}.!.!.E.[._.F. Xd N AXkXjXdX%.K 0.kXkXGXV C x.{.)././._._.W.T.1Xc.y K lXlXKXdXjXjXKX8.9 s.XXH.F.R.'.k.g * % o X       ",
"  X & D @X!.Q.R.I.P.G.}.f.p =XKXkXkX4X: : I kXkXjX4.d d.H.Q._._._._.}.k.x.) f JXAX%.i i 5XkXhXGXj S x.P./.G.P.OXj o o   . .   o ",
"  + = _ }.Q._.Q.P.1XG.E.=.g dXjXjXKXFX6X9.LXjXkXkXdX9 >.^.].Q.Q._.F.(.D.m.C D JXLXJ 3 Z GXKXKXJXL 0 2XS.P.P.P.l.c + o   . . O o ",
"o & 3 &.`.Q._.!.}.B.'.[.;.j 4X4.>.3.3.5X6X5X5XhXFXrXh <.K.Q.W.Q.Q.`._.E.%Xl Q rX:X%.$.8.4.%.8.9.P 3 +XD.).)._.oXx % % o     O   ",
"o & ; ) |._._.Q.!.`.Q.F.l.H D S ~ ^ ! H Q V D C M C l a.J.R.`.`.`.`.T.Q.@XX.~ Q ) Q ) #.3.#.J N M J 7X{.S.G.R.l.g % = %         ",
"o % & F OXG.).).F.`.Q.'.G.Y.L.U.^.#Xz.1X(.}.{.u.l.e.i.K.G./.).G.G./._._.T.E.[.D. XL.|.Y.2X0XhX0X9X2X~.W.`.].E.b.5 X % o         ",
"o o + j v.k.P.).`.Q.Q._./.G.`.Q.Q./.P.S._.Q._.`.{.H.}.T./.).G.).P./.R._._._././.E.E.).R.E.^.J.D.j./.!.!.Q.E.L.s.3   O   .     X ",
"  X   & $.OX(.R.Q._.Q._.'.'.R.R.`.R.G.P.).)._.R.T.!.!.!.T./.'./.G./._._._.Q.Q.!.R.R._._._./.P.G.P.).Q.'.Q.E. X_ = o   .     o o ",
"      & y v.L.R.R._.`._.R._.)./.R.R.E.'.).).).`._._.Q.!.Q.Q._.).]./.R._._.Q.E.^.|.H.G.R._._._.).G.'.R.'._.J.n.c * o         o % ",
"o O .   % Z x.I./.G.G.).]./.P.)._._.Q.Q._._._.Q._._._._.]._.T.G.S.).'._.Q.!.K.b.} r.K.(.R.R.G.(.!._.).P.S.OX' 2 %           O O ",
"% O # . - = Q x.S.P.'._.Q.!.'./._._.Q.Q.Q._._._.'.'._.R._._.Q.`.G.S.F.H.#XoX:.A a T J.}._._.(.H.!.`.P.j.OX<.1 * o           . O ",
"+   .   o & 4 ) m.j.R.`.W.W.].Q.Q._._.Q.~.~.!.T.G.R.)././._.R.R.}.|. Xv.$.M r 0 :.k.]._.Q._.}.Q.!.C.(.m.1.t % o               . ",
"X         = % r &.l.H.W.}._.W._._._._.`.$X7X$XL.#XK.#XY.Y.U.U. Xe.} W z 3 3 V &.l.P._._._._.Q.T.!.^. Xd.0 ; +                   ",
"  . . O o o & & 3 >.+XJ.Q._.Q.'.)./.P.[.9XfX0X,XU b R ` J Z z f 0 5 w z W r. XU.{.R._._._._.Q.`.(.l.<.q = X   X     . O .       ",
".   . o o o   : & 4 ^ oXE.R.'.P./.)./.G.@X$XoXb.Y p w w 4 4 9 r j Z >.v. XK.E.E.Q.Q._._._._./.D.b.) 7 , o   X       O O .       ",
". .     X       % 4 d C r.Y.j.I.{.R._.'.T.T.]./.U.K.l.l.p.p.f.n.,XyXuXtX>X X^.E.`.Q.R._.P.I.U.;.c 5 * % O     X     . .         ",
"O o         X + * G 6.! z ^ OXl.i.J.G.R.|.Q._._._././.G.G.{.#X9XiXuXuXuXtXfXXX^.H.R.H.U.m.;.Q t 6 + o                           ",
"o o X       X + 1 ..b.OXe.U m T b.OXU.A.F.`._.'./.).).)./.(.2X0X8XpXrXsXpX8X9Xl.D.XXM.>.N r = o       X                         ",
"+         X X = b n.D.S.Y.oX..m h S &..X X#X{.G.G.G.S.S.A.J.2XfXuXrXrX5XrXSXqXn.;.Q j ; o     . . . X             X             ",
"@           o < [ Y././.k. X-XO.r % = g A { s..XoXoXOXoXoX X$X7XgXcXcXcX:X6.V t < = & + + X     . .             X X     .       ",
".           % p =.U.D.U.M._ l , o   % , x k l m A U Y Y ~ ^ / / ) ` C h g p b g = o X     X X X       . . .             .       ",
".           = C -Xg.&.Z r & ; = o & = M v.h.e.*.~ Y A b l k c b b A Y T X.g.a.<.k = X . . . o o +     . . .                     ",
"    X       = G F w < & +   X + X % 1 { h.-.h.m.3X3X+Xg.s.1.1.s.s.f.f.r.| X.@.a...d o . # # o % %             X                 ",
"            o o % % o X         + & A f.i.*.` x l.Y.K.p.e.i.i.i.i.i.t.e./ s l d.a._ <   . $ O o                                 ",
"                                o t =.p.q./ d 0 x.).J.y.y.u.y.N.N.B.u.e.( q w ! s.w.R =     o -                                 ",
"                              o < A f.q.=.U , 9 Y.).F.N.u.u.u.B.N.B.u.-.] 4 , p a.r.s.Y 3 % % o                                 ",
"                              o d ..w.} ( p * w l.G.V.V.B.u.u.B.B.B.u.q.' 4 * , U f.e.=.F = o >                                 ",
"                              o C *X>.( c * % 4 e.F.V.V.B.y.y.N.C.N.C.q._ 0 % % 7 Y 1.v.5.5   .                                 ",
"                              o f J Z z < % O < w.B.N.N.B.B.C.C.B.y.C.t.[ f o o , 1 M V 6 + @                                   ",
"                              X + & * % o $ . = =.y.N.N.k.u.i.i.i.y.C.t.[ M o . % = & :   $   X                                 ",
"                                X   % O O   . 6 <.i.y.u.i.e.}  .p.t.C.q.[ Z o .   - + X $ . X                                   ",
"                                  + o o o X   e <.i.i.t.*.W q 8 { r.i.q.[ Z o .   o o   . .   X                                 ",
"                                  X o o + X X r s.t.y.t.{ F * , A f.i.+./ F +       o o       o                                 ",
"                                  .     X   X 5 w.y.F.q.{ C % & j s.Z.@.} R & X . . O o X   o O                                 ",
"                                . .           3 *.y.F.+.{ d & + 5 _ Z.@. .U = + . . .     X o o                                 ",
"                                O .           = =.p.q.| E 2 o X & S .X+. .U ,     . .       O O                                 ",
"                                O           X = Y g.| ( s * +   o d <.} { C <     .           o                                 ",
"                                o o           % p ' F v % .       o v x N 6 X   . O           o                                 ",
"                                % o . .       % 2 8 < o $ .     . O % = : X     O O     X X   o                                 "
};
