/* XPM */
static char *_a96436afdf34360a17617ccf05d99dbn4wwzk71gMP3Csp5[] = {
/* columns rows colors chars-per-pixel */
"64 64 248 2 ",
"   c None",
".  c #020101",
"X  c #0B0001",
"o  c #0A000A",
"O  c #140000",
"+  c #1B0000",
"@  c #140009",
"#  c #1D1100",
"$  c #230000",
"%  c #2C0000",
"&  c #2A0903",
"*  c #330000",
"=  c #3C0000",
"-  c #2D1304",
";  c #3D1300",
":  c #430000",
">  c #4C0100",
",  c #480A05",
"<  c #530000",
"1  c #5C0000",
"2  c #570A04",
"3  c #451602",
"4  c #591600",
"5  c #5F1315",
"6  c #490E12",
"7  c #620101",
"8  c #6C0301",
"9  c #6C0903",
"0  c #660806",
"q  c #720301",
"w  c #7D0101",
"e  c #7A0B03",
"r  c #790B0B",
"t  c #6D1702",
"y  c #7B1A04",
"u  c #781407",
"i  c #6C1618",
"p  c #781810",
"a  c #680F12",
"s  c #4C2800",
"d  c #572400",
"f  c #752A03",
"g  c #6D2418",
"h  c #742727",
"j  c #840101",
"k  c #8D0100",
"l  c #830C03",
"z  c #8D0C0C",
"x  c #880C08",
"c  c #9A0705",
"v  c #8B150A",
"b  c #991008",
"n  c #860A12",
"m  c #980B13",
"M  c #871618",
"N  c #931511",
"B  c #9A1515",
"V  c #A40402",
"C  c #AA0000",
"Z  c #AC0B0C",
"A  c #A60A08",
"S  c #B40202",
"D  c #BD0402",
"F  c #B70909",
"G  c #A6140A",
"H  c #B3190E",
"J  c #B6140A",
"K  c #AC0E14",
"L  c #A40D15",
"P  c #BB0B13",
"I  c #B00F16",
"U  c #A21519",
"Y  c #A41714",
"T  c #BB1616",
"R  c #852606",
"E  c #9A2A06",
"W  c #8A2718",
"Q  c #863514",
"!  c #9E2D0F",
"~  c #BB3702",
"^  c #B8271A",
"/  c #A02E00",
"(  c #851A22",
")  c #B81F22",
"_  c #843123",
"`  c #9D2C22",
"'  c #AB2128",
"]  c #C40101",
"[  c #CB0102",
"{  c #C20A04",
"}  c #CB0806",
"|  c #D20203",
" . c #D20B00",
".. c #DC0D01",
"X. c #D50D0C",
"o. c #DB0707",
"O. c #C4160D",
"+. c #C5180D",
"@. c #CC1709",
"#. c #D41201",
"$. c #DD1403",
"%. c #D21C00",
"&. c #D5140C",
"*. c #DB120E",
"=. c #D71B08",
"-. c #C30811",
";. c #CD1314",
":. c #C51B12",
">. c #C51617",
",. c #D41313",
"<. c #D61519",
"1. c #D50E14",
"2. c #E30402",
"3. c #EC0401",
"4. c #E40D02",
"5. c #EB0B02",
"6. c #E30C0D",
"7. c #EA080B",
"8. c #F40302",
"9. c #FC0202",
"0. c #F30B01",
"q. c #FC0C01",
"w. c #F40409",
"e. c #FE0509",
"r. c #FC0A0B",
"t. c #F50A0A",
"y. c #E51202",
"u. c #EC1402",
"i. c #ED1A00",
"p. c #E51409",
"a. c #EA1C0A",
"s. c #E61908",
"d. c #F51301",
"f. c #FC1301",
"g. c #F41B01",
"h. c #FC1D02",
"j. c #FE1C0A",
"k. c #F6170C",
"l. c #E40D13",
"z. c #E41213",
"x. c #FF1D11",
"c. c #CD2C00",
"v. c #C82400",
"b. c #DB2D00",
"n. c #D62407",
"m. c #C83905",
"M. c #DD3300",
"N. c #DC3D00",
"B. c #D43F00",
"V. c #C72713",
"C. c #D42615",
"Z. c #C63818",
"A. c #E92902",
"S. c #F62303",
"D. c #FD2303",
"F. c #F52D02",
"G. c #FD2D03",
"H. c #FE240B",
"J. c #FE2C0A",
"K. c #F52A0B",
"L. c #E33200",
"P. c #ED3401",
"I. c #EB3901",
"U. c #E73808",
"Y. c #F63501",
"T. c #FC3302",
"R. c #F43A02",
"E. c #FC3B03",
"W. c #F5340B",
"Q. c #FD330A",
"!. c #F33B0C",
"~. c #FE3B0A",
"^. c #EA2A11",
"/. c #FF2414",
"(. c #FF2A11",
"). c #F52613",
"_. c #EA3716",
"`. c #FF3313",
"'. c #F53A16",
"]. c #C31E26",
"[. c #D33B29",
"{. c #E03421",
"}. c #9B4514",
"|. c #854B0C",
" X c #B64A10",
".X c #8D6400",
"XX c #A16900",
"oX c #AF4520",
"OX c #C64700",
"+X c #D94701",
"@X c #DA5700",
"#X c #D94217",
"$X c #CC521D",
"%X c #E64603",
"&X c #F74302",
"*X c #FD4402",
"=X c #FC4903",
"-X c #F4430B",
";X c #FD4309",
":X c #FE490B",
">X c #F24A08",
",X c #E95904",
"<X c #F85404",
"1X c #E74814",
"2X c #F84615",
"3X c #E85719",
"4X c #F75614",
"5X c #DE6400",
"6X c #ED7906",
"7X c #FE7816",
"8X c #EB660A",
"9X c #C75725",
"0X c #DB5C24",
"qX c #E95723",
"wX c #F24824",
"eX c #D86423",
"rX c #D36433",
"tX c #E76622",
"yX c #FF7C29",
"uX c #9C8000",
"iX c #B49400",
"pX c #D49707",
"aX c #F88000",
"sX c #FF951D",
"dX c #F88A0D",
"fX c #DDA813",
"gX c #CFB801",
"hX c #FFB40B",
"jX c #FFA61A",
"kX c #FFB413",
"lX c #FEBC14",
"zX c #FFB51E",
"xX c #F2A807",
"cX c #FF8B26",
"vX c #FF9A2A",
"bX c #FF9E30",
"nX c #FFAD22",
"mX c #FFA329",
"MX c #FCB527",
"NX c #FFAE37",
"BX c #FFB534",
"VX c #FDC708",
"CX c #FBD408",
"ZX c #FEC716",
"AX c #FBDF18",
"SX c #EDCB1B",
"DX c #FFCB2B",
"FX c #FFC13A",
/* pixels */
"                                                                                                                                ",
"                                                                                                                                ",
"                                                                                                                                ",
"                                                                                                                                ",
"                                                                                                                                ",
"                                                                                                                                ",
"                          . . . .                                                                                               ",
"                          . . . X O +                                                                                           ",
"                            . X , i 0 : O                                                                                       ",
"                            . O = M ' U 1 $ O                                 . .                                               ",
"                            . X * n <.l.<.j % X                             . . . .                                             ",
"                            . O = B l.9.w.,.l % X                           . X $ O .                                           ",
"                            . O 1 T 7.9.9.5.&.b % X                         X = ( < + .                                         ",
"                            . + w X.w.9.9.8.3.&.r % O                     X % p ].K : O .                         .             ",
"                            . % Z 7.e.f.h.q.8.2.>.j $ .                 . + 8 >.6.*.m > +                       . . .           ",
"                          . X : ;.8.t.j.H.D.0.8.7.>.< + .               X : K 6.k.3.,.b * O                     . . .           ",
"                          . + p *.3.j.Q.G.Q.h.8.0.6.L : X             X % r ,.r.x.j.5.O.z * X                   . . . .         ",
"                        . O = Y ..f.H.Y.Y.Q.G.h.9.3.;.w $ .           $ 7 J 5.j.(.H.f...O.j $ X               X X + . .         ",
"      o                 . + q >.4.j.`.T.~.T.G.D.f.f.u.I = @ .       . * V p.g.J.H.J.H.d.6.O.7 +               O : 5 O .         ",
"    o o o               X $ c *.k.(.G.F.Y.E.~.Q.G.D.H.@.0 + X     . O 7 @.d.D.Q.Y.`.(.f.8.l.U = X           O % n ' * o X       ",
"    . . . .           . X = J k.H.H.T.T.E.E.~.T.T.T.F.n.B = O . . + > Y A.h.G.T.Q.Q.J.H.8.3.1.m % .       X % 8 >.T < O X       ",
"    o O $ + X         o O < O.j.(.J.T.E.*X*XE.Y.T.T.T.U.^ 7 + O + % e C.K.G.E.E.~.Q.T.H.f.8.w.P : X o   . + < I l.<.q $ X       ",
"  . O * M < $ X       . + 0 @.K.(.Q.T.E.*X*X*XE.Y.T.Y.!.[.k * $ = u Z._.W.Q.~.*X;X~.T.Q.j.9.9.<.7 O X X X * K z.w.z.z % X       ",
"  . O 2 ) I 1 % X     . % r n.H.G.Y.T.*X*X=X*X&XE.R.Y.W.^.C.z u Y [._.K.Y.Y.&X*X;X;XE.T.J.q.9.6.z % + $ * q ,.k.r.z.Y : X .     ",
"  . + p ,.6.-.w % X . O = B s.D.T.Y.E.*X*X=X=X&X&XR.R.Q.`.).*.#.^.'.Q.F.~.;X=X*X=X*X*X;XG.h.q.p.b < & > b +.)./.(.p.J 7 + .     ",
". X & M o.9.w.,.q * + % 8 T A.H.T.E.E.*X*X*X*X=X>X&XR.E.Q.H.d.3.h.J.G.T.;X*X&X&X=X*X*X=X~.K.j.u.@.k w G C.).(.`.(.a.O.w $ X     ",
". O : Y 7.9.8.6.;.j : : V p.g.T.T.E.*X*X*X*X=X&X&X:X;X~.T.T.G.G.G.G.G.~.~.;X=X&X*X*X*X*X~.G.D.d.y.#.n._.!.~.~.`.K.^.#.k $ .     ",
". + < I z.9.f.x.z.<.b k *.0.i.T.T.E.E.E.;X&X:X:X:X;X&XE.Y.T.T.G.Q.Q.G.~.~.*X&X*X*X*X*X;XF.F.D.u.5.g.W.~.E.E.~.2XK.K.$.A $ . X   ",
". + 7 >.5.9.f.J.(.u.4.o.7.3.S.T.T.T.T.T.T.T.E.~.R.R.R.Y.R.F.F.T.Q.G.Q.T.Y.E.E.R.R.E.Y.T.T.G.S.G.H.~.*X*X*X*X*X*X~.Q.a.J * . X   ",
". + 7 :.3.9.h.G.H.H.8.8.8.0.S.T.G.T.G.Q.T.E.Y.P.I.R.R.Y.T.F.G.Q.G.T.T.T.T.Y.Y.Y.Y.Y.T.T.T.T.~.~.E.*X*X*X=X=X*X*X*XT.k.J = X X   ",
"o + 1 +.0.f.G.T.T.G.f.8.8.f.K.R.Y.Y.Y.R.!.&XI.P.I.P.Y.Y.G.h.f.h.G.Y.Y.T.Y.T.T.E.Y.T.T.T.G.T.E.*X*X=X*X*X*X=X=X=XE.T.H.+.: O X   ",
". + 1 T 5.f.G.E.E.T.H.0.8.f.J.W.R.I.%XN.+X%X@X@X@X%XN.P.i.u.5.8.g.J.J.J.G.T.Y.R.L.M.L.L.A.A.P.R.=X*X=X=X*X*X*X*XE.E.H.@.> O .   ",
". O > H y.H.Q.T.E.E.G.h.5.u.G.Y.%Xm.@XaXxXhXhXlXhXjXdX5Xv...3.q.q.0.8.0.0.y.%.v.~  XOXm.m.c.U.P.R.R.R.R.E.E.R.E.T.Q.H.@.4 O . . ",
". O , Y %.J.G.Y.*X=XE.G.G.D.G.P.m.6XjXlXVXCXCXCXZXZXlXjXyX%.0.q.9.9.9.8.5...+XcXNXBXMXzXsX7X%XL.R.Y.R.Y.Y.E.Y.Y.T.G.j.=.0 O . . ",
". X * N $.H.G.Y.=X:X:X*XE.T.Q.L.@XjXZXVXCXCXAXgXiXlXZXzXbXU.5.9.9.9.9.3.o.b.vXDXMXfXlXlXZXzXvXOXR.T.T.Y.Y.T.Y.T.T.D.f.p.9 + . . ",
"  o $ p =.(.G.Y.=X=X=X*X~.Y.T.L.@XnXkXVXVXAXSXuX.XfXZXnXcXM.0.e.9.9.9.8.5.b.jXDXpXXXxXZXlXnXcXB.R.T.T.T.T.T.Y.T.G.h.q.*.9 + . . ",
"  . + < O.u.K.~.&X*X=X&XE.Y.W.~.M.,XsXnXlXVXZXZXDXnXvX7XA.y.3.9.9.9.9.9.8.$.N.cXNXBXFXMXvX7X>XA.Q.J.Q.Q.Q.T.W.Q.J.d.q.&.9 + . . ",
"  . X = H a.J.~.*X*X:X*XE.T.G.G.K.#.c.,X6X6XaXaX6X,XM.#.2.8.8.9.9.9.9.9.9.3. .%.+X+X@XOXc.n.y.d.D.D.J.J.J.Y.W.Q.Q.j.8.;.2 + X . ",
"    . % k $.S.T.E.E.*X*XY.T.G.D.0.q.4.y.$.y.i.i.4.4.5.3.e.e.9.9.9.9.9.9.9.9.8.0.4.y.....4.5.8.q.q.f.D.D.J.Q.W.Q.(.j.5.F = X X   ",
"    . O 1 J s.G.T.E.E.Y.T.Q.D.f.9.e.w.8.8.8.9.q.9.9.9.9.9.9.9.9.9.9.9.9.9.9.9.9.9.9.9.9.8.8.e.9.8.0.d.h.J.Q.W.K.H.a.&.c % X o   ",
"      X + 9 #.g.T.Y.P.P.F.H.f.9.q.e.e.e.e.9.9.e.9.9.e.e.9.9.9.9.9.9.8.9.9.9.9.9.9.9.9.8.9.9.e.e.8.0.d.D.G.T.T.T.i.$.^ < + o     ",
"      X X & j @._.;X-X!.A.S.f.9.9.9.q.r.e.r.w.w.8.8.8.9.9.e.9.9.9.8.9.9.9.9.9.9.9.9.9.9.e.9.9.9.8.0.h.G.T.E.*X<X2X[.9 % X       ",
"        X X * p V._.wX2XW.W.h.d.0.0.9.9.e.2.[ X.4.6.t.9.9.9.e.9.9.9.9.8.9.q.9.9.9.9.9.9.9.9.9.8.d.g.F.Y.&X=X<X4XrXp = X .       ",
"          . O % q Z.wX2X2XE.T.S.g.f.9.9.e.o.S V S ] X.6.l.6.l.6.p.4.y.5.5.4.5.w.w.e.9.9.9.q.9.0.i.S.Y.R.<X<X8XeXW & @ .         ",
"            - + $ < ! 0X4XR.;XY.S.D.h.q.8.3.6.[ C k w j k c L G H J J J O.{ {  .w.9.9.q.0.f.h.D.H.T.*X=X,XtXrXf + O             ",
"                - + = y $X3X3X2XE.T.D.D.f.d.0.p.,.T Z c j w w q w j j k k c C ] 3.8.q.d.g.g.D.F.&X:X<X3XeX}.3 O O               ",
"                  3 $ $ = Q  XtX4X:XE.G.G.D.D.g.k.s.p.s...#. . . . . . .....y.k.j.h.j.G.G.E.&X*X>XtXeXoX4 % O X                 ",
"                      ; % % > y  X#XqX1X2XR.R.A.D.D.D.g.g.g.i.i.i.i.g.i.j.g.g.H.J.J.Q.!.&X>X3XtX0X! 4 * O X                     ",
"                          d & % * , R oX9X0X3X%XE.~.E.P.G.T.F.P.W.P.W.W.!.U.!.'.!.-X3X3XtX9X}.f = $ + #                         ",
"                                s ; = = 2 y / ~ +X1X#X1X1X1X1X_.#X{.#X#X#X#XZ.m.~ ~ / R t > & & -                               ",
"                                      |.d , > 1 7 9 9 9 8 8 7 2 1 < > > : : : : > > : : ; s                                     ",
"                                          4 W ` _ _ W R R v y p u t t t p p g g h h h >                                         ",
"                                          1 G A W 7 e ^ C.,.>.>.+.+.:.:.>.) M 1 = i n r :                                       ",
"                                        : z F H 9 : 7 J ..2.| [ | | | [ o.-.c 1 * > M U r > +                                   ",
"                                      $ e G A e * $ < H [ | [ ] [ [ ] ] [ -.m 1   + 0 B G j > *                                 ",
"                                      * M B n > +   > Y { | [ [ ] [ ] ] [ -.L 7 +   % 1 v N 5 &                                 ",
"                                      + 6 = % @     < m D ] [ [ { { ] [ [ D L 8 +       * * $                                   ",
"                                                    > m P [ [ { A c C ] ] D A 8 $                                               ",
"                                                    > B -.[ { V 1 : q Z D D A 8 $                                               ",
"                                                    > B -.] S k : + : z F ] A q $                                               ",
"                                                    > B P P V e $   % 0 P D c 0 +                                               ",
"                                                    = M K U l < +     = m A n a +                                               ",
"                                                    + 6 ( M 2 $       $ a r a 6 O                                               ",
"                                                      * > : %           * : = %                                                 "
};
