/* XPM */
static char *d5531b32d85f4943a8f42ce19b961e7bvxOjOWr1ECt90f4N[] = {
/* columns rows colors chars-per-pixel */
"64 64 34 1 ",
"  c None",
". c #0B0B0B",
"X c #120F0F",
"o c #12100F",
"O c #0F0E10",
"+ c #120F10",
"@ c #151111",
"# c #1A1515",
"$ c #1D1817",
"% c #1D1718",
"& c #1E1919",
"* c #221B1A",
"= c #26201F",
"- c #28211F",
"; c #262120",
": c #2B2523",
"> c #2F2926",
", c #302A27",
"< c #322C29",
"1 c #382F2E",
"2 c #36312D",
"3 c #39302F",
"4 c #3D3433",
"5 c #3E3935",
"6 c #413736",
"7 c #423837",
"8 c #423D39",
"9 c #46423D",
"0 c #48443F",
"q c #4A4641",
"w c #4E4B46",
"e c #504C47",
"r c #514E48",
"t c #55524C",
/* pixels */
"    ..........    ........    ..............  ..............    ",
"    oooO@o#@o#    Oo@@@#@@    oooooo#o#o#@@@  OOoo#ooOOo#o#o    ",
"  .X><59rrrrrw#..O>2errrrr*...:,58rrrrrreere$.:2wrrw8559rrrr$.  ",
"  O#<49qttttrw$o##25tttrrr;@o@,280ttrrrtttte;@>2wrrw889qttrr*$  ",
".o>289tttttt082<58ttttte8958<<59rttr888qtt058888888880tttt0885o.",
".o:>58wrtttt52>>55wrtttw55552<58wrtw5259ew954555552558wrtt8555o.",
"..&=>280tttt>&&=,25qtttq><<2><8980tq&;,2952<><<<<>*;,280tt5><>O.",
"..**>280ttww:&**;>55wrr5::;;::2588w0*;:,45<:::;;;;$&:,58ww2:;;..",
"..&*,259tt95-**&**<177q2**@O**:18882***=<<=***o+OOO@&=,288:*o.  ",
"..*;,289tt08-*****>18752**@O%*><8885***=,<=***@.oOO@&=,288-$..  ",
"  OO#*250922&o@@**:1853>+@++@@*-222,*&@@##@@@@ooOoO@@#;=::$#o.  ",
"  ..O#,2882>#Ooo**>155<;O++++X%*,,<:*%O@OOooXo@oO@OoO@*&&&$o..  ",
"  ..O#;;22&#OoOO+#*-1:#@++@@X@@@&;==oo@o@o=::::-@ooooOo&>>>:o.  ",
"  ..O@&;>>#.ooOoO+%=>-+X@@@@XXX@&&&&.o@oo@:<<>2>#@ooooO&<><>@.  ",
"  ..O@O@@@@@@@oOO+++@@@@@@@@XX*-,:#@@@o@&$**>><>>;@@oo&=><<<::o.",
"  ..OOOOOO@@@@@@++++++#@@@@@@@:6<,#@@@@#****><<<<>@@o#&=<<<<<<o.",
"  ..oXXXXX@XX+*#++XX@#*#@@XX%*,,,:,-@@*#****:>,653@@***-,,4464X.",
"  .oooo@#@##++%*#@XX@#**@X@@**:>111:X@******>>664<@@$**;<<4641..",
"..ooo@*=<>>>#@X@>>@XXXXXXX%***>:666<X@****:,6666%@++o#>26666*@..",
"..ooo#**:><<*#++;;###@*@XX%%**16666,@@**-*><6666@+++X#:>4111%@..",
"..XoX@****><<>#@X#,<>><*XX@@-,6666XXXXX#<66666@@+XXX.Xo@@@@@@+X.",
"..XoX@%&*-<1<<#@@$-,<>1-XXXX,<661:#XXXX#-->>6<#X%%%%####@#@@XX..",
"  ..@@O%<<6666#X****,<<-@@X@6666%@@XXXXXXXX@@@XX>,<,,,<;X@@@..  ",
"  ....O#-*16<<#@**--113;@X@@-><,@X*%**$#@#@@@@@#>,,<<<<:**@@..  ",
"    ..XXX+<6*XXX**,<666<XX@@@@XXX#,<,<<:**@@XX**,,,<,<<>><#X..  ",
"    ..XX+O16*@XX$*,2667<XX@@@@XXX@,,<,<:**#@X@$*,<<,<,<<<<*#..  ",
"    ..XoX+%&@@+@-,36666<@@@@X@#%-:,<<<<-@@#*@@***-,<,<<<<<-*@XX.",
"    ..@o@@@+@@+@,<66666<@@@@XX**,,<,,<<-XX**@X****,,<,><><<<*X..",
"  ..X#::::::#@X+#$4661*#@@XX%****-,,6>#@@@@@XX*****-<<><<<<:#X..",
"  ..o#<,,,,<%@XXo@466<@@@@XX%*****,,66X@@@@@XX%****-><<<<<<:#@..",
"  ..&=<<,,<<>:#+@o###@@@XX%***:-,,6666X#>>>>#+X@**,<16666666*X..",
"  .X**>,<<<,,,#@@@@@@@@@XX%***,6>6,66,@*,,,,%+X@**,166666661*X..",
".X*%***-,,,:,>#@X#:>>-@@@@@+-<6666##@#*-,,66#X@#-166666666*#X.  ",
"..*****-6:6:1>#@@#>><-##@@+@->116:#XX@*-,,61#@@#:,,6666611%X..  ",
"..***-:<666666%X****<>:*+@@@@@++X@@@X#,666*#@@@@@@@%6661@#X.    ",
"..%**-:6666661@X%%*->66-@@@@@@#@@@@X+%--,6*X@@##%#X#116-@@X.    ",
"..X@,6666666*@XXX#:<666<@@@X+X:<>:@#**+X@@@XXX:,>-@@@@#@X@ooX.  ",
"..X@-:66666:##@XX@>666>-@@###*><1>%%%#XX@@@#%%,<<,*%@@@@####*@  ",
"  ..X%6666%X**#@+#6666#@@X-<<<<<>><:X@@XXX**:6<,<<,:@@@#<<<>,>X.",
"  ..X#1<,,%X##@@+#><<-@@@#-:><<<<<>-@@@@XX#**-,,<,<-@@@*::<>1<X.",
"  ..XXXX@@XX@@@@@@@@@@X@*%**:><<>><:@@@@XX%***,<<,,:X@****><46o.",
"  .XXXX@@@XX@@@X@@@@@@@@****>,<<1,<:#@@@XX%***,,<<,;++****:<44o.",
"    ..@@X@**----@@%%@@X@*****-><6661@@@@%%**-,1643*%%%X%::34;&..",
"    .X@@X@-66:6-@@%*@XX%******><6661@@@#****::6663@@*%X$<<44&o..",
"  ..XXX#-:,,,<,<:-%@@@X@****:>166661X@+#**-,6666**X@@@X@#%%*X.  ",
"  ..XXX*:6,,<,<,1:@#@@X@****>,666661@X+@%*:,6661#X@@@@@@@@X+..  ",
"  ..XX****:,<,,<,,:-@@@@+@-,666666@@@@@@X@<666%%@@X#;>:>>>%X..  ",
"  .XXX****,<,<<,<,1-@@@@OO->16666<XX@@@@XX,661#X@@X#<<<><<*@..  ",
"..X@*****%,,,,<<<<<:@#*#X@X@166666@@X@**XX#@##@@@@**<<<<<<>>X.  ",
"..@@******-,,<<,<<<-X@**X@X@>6616<#@XX**#@*#@##@X@**><>><><,@X  ",
"..**********,<<,<<<:#XXXXXX@+@+XX@XXX#,,:<><<>@XXX*****;<<<<>>X.",
"..**********,2<<<<<>X@#@####+++X@X@@X*,<<<<><>*%XX*****-><<<2<..",
"..********:,46666661@@*;<<<>#@@@X@***-<<<<,<,<,:@@++***-,,4764@.",
"..#&*****-,1666666<>o@**>:><*%#@X@****>>><<,<,<,#@X@***;1<4664o.",
"..X@***;<<66666666#@o@****>>>>#@X@$*****<<,<<<<<@@X@*-,1776644O.",
"...@&***,<366666<>@@@@#**-<11<#@#@*****:1<1111;*@@XX#*11667755o.",
"  ..***;<<666663@@XX@XX#,,4764#o******<6666664%+XXXX+&66666664+.",
"  ..&**;<,366666%@XXXX.#,,4764#@$****-,,766666#+XXX+O%66766674+.",
"  ..@%:<366676**ooXXX..X%%1764#O****:,66666764#XX.XXX@*>6766-*..",
"  ..O#>1776663@XXXXX....OO<764#@$***,,66666664#+..XXX++*6464%+..",
"    ..#;6764*$......    ..@%%#..@#:>66664577&@..  ....@@***&X.  ",
"    ..O&4444$X......    ..@.XX..X@>>66664544@...  ....XXXXX+..  ",
"      ..@@o@..            ....  ...XXX.XooO@          ......    ",
"      ........            ....  ............          ......    "
};
